<svg width="27" height="27" viewBox="0 0 27 27" fill="none" xmlns="http://www.w3.org/2000/svg">
<g clip-path="url(#clip0_7_24)">
<path d="M20.25 9.45001H16.2V1.35001H10.8V9.45001H6.75001L13.5 16.2L20.25 9.45001ZM26.1063 18.2682C25.8228 17.9658 23.9315 15.9422 23.3915 15.4143C23.0131 15.0516 22.5089 14.8493 21.9848 14.85H19.6128L23.7492 18.8919H18.9648C18.8998 18.8907 18.8356 18.9067 18.7787 18.9382C18.7218 18.9697 18.6743 19.0157 18.6408 19.0715L17.5392 21.6H9.46081L8.35921 19.0715C8.32555 19.0159 8.27794 18.9701 8.2211 18.9386C8.16427 18.9071 8.10018 18.891 8.03521 18.8919H3.25081L7.38586 14.85H5.01526C4.47931 14.85 3.96766 15.0647 3.60856 15.4143C3.06856 15.9435 1.17721 17.9672 0.893711 18.2682C0.233561 18.9716 -0.129589 19.5318 0.0432109 20.2244L0.800561 24.3743C0.973361 25.0682 1.73341 25.6379 2.49076 25.6379H24.512C25.2693 25.6379 26.0294 25.0682 26.2022 24.3743L26.9595 20.2244C27.1296 19.5318 26.7678 18.9716 26.1063 18.2682Z" fill="white"/>
</g>
<defs>
<clipPath id="clip0_7_24">
<rect width="27" height="27" fill="white"/>
</clipPath>
</defs>
</svg>
