<svg width="5503" height="176" viewBox="0 0 5503 176" fill="none" xmlns="http://www.w3.org/2000/svg">
<path d="M5502.67 164.987C5502.67 170.878 5497.9 175.66 5492.01 175.667C5486.12 175.674 5481.34 170.904 5481.33 165.013C5481.33 159.122 5486.1 154.34 5491.99 154.333C5497.88 154.326 5502.66 159.096 5502.67 164.987ZM2.14742 10.4357C1.04285 10.437 0.146354 9.54266 0.145041 8.43809C0.143728 7.33352 1.03809 6.43703 2.14266 6.43571L2.14742 10.4357ZM5492 165C5490.09 165.605 5490.09 165.605 5490.09 165.604C5490.09 165.603 5490.09 165.602 5490.09 165.601C5490.09 165.598 5490.09 165.593 5490.09 165.586C5490.08 165.573 5490.08 165.552 5490.07 165.525C5490.05 165.47 5490.02 165.388 5489.99 165.279C5489.92 165.061 5489.81 164.735 5489.67 164.309C5489.39 163.457 5488.98 162.201 5488.43 160.596C5487.33 157.384 5485.72 152.772 5483.64 147.178C5479.47 135.988 5473.46 120.887 5466.05 105.226C5458.64 89.5555 5449.85 73.3794 5440.15 60.0117C5430.42 46.5911 5419.94 36.2508 5409.22 31.9016L5410.72 28.1951C5422.5 32.975 5433.53 44.0682 5443.39 57.6628C5453.29 71.3102 5462.2 87.7309 5469.67 103.516C5477.14 119.31 5483.2 134.524 5487.39 145.784C5489.48 151.416 5491.11 156.063 5492.21 159.305C5492.77 160.925 5493.19 162.195 5493.47 163.061C5493.62 163.494 5493.72 163.826 5493.8 164.05C5493.83 164.163 5493.86 164.248 5493.88 164.306C5493.89 164.335 5493.89 164.357 5493.9 164.372C5493.9 164.379 5493.9 164.385 5493.9 164.389C5493.9 164.391 5493.91 164.392 5493.91 164.393C5493.91 164.394 5493.91 164.395 5492 165ZM5409.22 31.9016C5365.16 14.0233 5304.31 32.0359 5284.08 90.9353L5280.3 89.6358C5301.36 28.3154 5364.79 9.55689 5410.72 28.1951L5409.22 31.9016ZM5284.08 90.9353C5282.77 94.7635 5281.43 97.839 5280.05 100.208C5278.68 102.559 5277.2 104.344 5275.53 105.433C5273.79 106.571 5271.91 106.907 5270.01 106.415C5268.2 105.948 5266.56 104.782 5265.08 103.294C5262.13 100.332 5259.23 95.499 5256.32 89.737C5253.39 83.9277 5250.34 76.9607 5247.16 69.5864C5240.77 54.7699 5233.82 38.2891 5225.9 25.497C5221.95 19.1061 5217.81 13.7471 5213.48 10.0051C5209.16 6.27129 5204.76 4.25235 5200.22 4.25775L5200.21 0.257752C5206.03 0.250839 5211.32 2.85196 5216.1 6.97792C5220.86 11.0957 5225.25 16.8361 5229.3 23.3916C5237.41 36.4923 5244.49 53.2921 5250.84 68.0025C5254.02 75.3916 5257.02 82.2495 5259.89 87.9341C5262.78 93.666 5265.45 97.9957 5267.91 100.472C5269.14 101.704 5270.17 102.326 5271.01 102.542C5271.75 102.734 5272.48 102.648 5273.34 102.085C5274.28 101.474 5275.38 100.279 5276.59 98.1963C5277.79 96.1324 5279.03 93.3214 5280.3 89.6358L5284.08 90.9353ZM5200.22 4.25775C5179.5 4.28238 3879.98 5.82687 2585.64 7.3652C1938.47 8.13437 1292.6 8.902 808.519 9.47733C566.478 9.765 364.885 10.0046 223.802 10.1723C153.261 10.2561 97.8474 10.322 60.0689 10.3669C41.1797 10.3893 26.6994 10.4065 16.9413 10.4181C12.0622 10.4239 8.36376 10.4283 5.88506 10.4313C4.64581 10.4327 3.71121 10.4339 3.08673 10.4346C2.77458 10.435 2.53947 10.4352 2.38286 10.4354C2.30448 10.4355 2.24562 10.4356 2.20635 10.4356C2.16709 10.4357 2.14742 10.4357 2.14504 8.43571C2.14266 6.43571 2.16233 6.43569 2.2016 6.43564C2.24086 6.4356 2.29972 6.43553 2.3781 6.43543C2.53486 6.43525 2.76969 6.43497 3.08197 6.4346C3.70663 6.43386 4.64088 6.43275 5.88031 6.43127C8.35901 6.42833 12.0575 6.42393 16.9365 6.41813C26.6946 6.40653 41.175 6.38932 60.0642 6.36687C97.8426 6.32197 153.256 6.25611 223.798 6.17228C364.88 6.0046 566.473 5.765 808.514 5.47734C1292.6 4.902 1938.47 4.13437 2585.64 3.36521C3879.98 1.82687 5179.49 0.282383 5200.21 0.257752L5200.22 4.25775Z" fill="#4F587A"/>
</svg>
